<mxfile host="app.diagrams.net" modified="2024-06-20T02:45:10.673Z" agent="Mozilla/5.0 (Macintosh; Intel Mac OS X 10_15_7) AppleWebKit/537.36 (KHTML, like Gecko) Chrome/126.0.0.0 Safari/537.36" version="24.5.5" etag="RulLbXLLNpJTSiAHKmj2" type="github">
  <diagram name="第 1 页" id="T2Vd-EA-eIBZxFPmkYbD">
    <mxGraphModel>
      <root>
        <mxCell id="0" />
        <mxCell id="1" parent="0" />
      </root>
    </mxGraphModel>
  </diagram>
</mxfile>
